<mxfile host="app.diagrams.net" modified="2024-04-09T08:38:44.485Z" agent="Mozilla/5.0 (Windows NT 10.0; Win64; x64) AppleWebKit/537.36 (KHTML, like Gecko) Chrome/123.0.0.0 Safari/537.36 Edg/123.0.0.0" version="24.2.2" etag="a36vWpnW13U9T9VTebjU" type="github">
  <diagram name="Page-1" id="dkLmOQd1HcsfgHAnOU7j">
    <mxGraphModel>
      <root>
        <mxCell id="0" />
        <mxCell id="1" parent="0" />
      </root>
    </mxGraphModel>
  </diagram>
</mxfile>
